<svg xmlns="http://www.w3.org/2000/svg" xml:space="preserve" width="351.0319286143133" height="379.5305613915853" viewBox="-0.5059643071566597 -0.4752806957926623 351.0319286143133 379.5305613915853"><path d="M91.39 69.79a4.59 4.59 0 0 1-1-2.88V1.08A1.08 1.08 0 0 1 92.3.41l109.51 136.88a1.09 1.09 0 0 1-.85 1.76H149a4.59 4.59 0 0 1-3.6-1.74ZM186.65 92h51.95a4.58 4.58 0 0 0 3.6-1.73l16.41-20.51a4.59 4.59 0 0 0 1-2.88V1.08a1.08 1.08 0 0 0-1.91-.67l-71.9 89.87a1.08 1.08 0 0 0 .85 1.72Zm-69.12 115v-35.38a4.57 4.57 0 0 0-1-2.88l-59.88-75A4.63 4.63 0 0 0 53 92H1.08a1.08 1.08 0 0 0-.84 1.76l75 93.71a2.86 2.86 0 0 1 0 3.56l-75 93.72a1.08 1.08 0 0 0 .84 1.75H53a4.65 4.65 0 0 0 3.61-1.73l59.88-75a4.57 4.57 0 0 0 1.04-2.77Zm157.26-15.91a2.86 2.86 0 0 1 0-3.56l75-93.71a1.08 1.08 0 0 0-.84-1.76H297a4.63 4.63 0 0 0-3.61 1.74l-59.88 74.94a4.57 4.57 0 0 0-1 2.88v35.35a4.55 4.55 0 0 0 1 2.88l59.88 75a4.65 4.65 0 0 0 3.61 1.73h51.95a1.08 1.08 0 0 0 .84-1.75Zm-16.18 117.68-54-67.52a4.58 4.58 0 0 0-3.6-1.73h-51.8a5 5 0 0 0-3.89 1.86l-53.93 67.39a4.6 4.6 0 0 0-1 2.89v65.82a1.08 1.08 0 0 0 1.92.67L173.18 277a2.31 2.31 0 0 1 3.61 0l80.91 101.15a1.08 1.08 0 0 0 1.92-.67v-65.82a4.6 4.6 0 0 0-1.01-2.89Z" style="stroke:none;stroke-width:1;stroke-dasharray:none;stroke-linecap:butt;stroke-dashoffset:0;stroke-linejoin:miter;stroke-miterlimit:4;fill:#fff;fill-rule:nonzero;opacity:1" vector-effect="non-scaling-stroke"/></svg>